<svg width="1202" height="892" viewBox="0 0 1202 892" xmlns="http://www.w3.org/2000/svg"><defs><style>
  :root {
    --bg-primary: #f7fafc;
    --text-primary: #2a2f45;
    --link-stroke: #c1c9d2;
    --cycle-stroke: #cd3d64;
    --dependency-stroke: #067ab8;
    --legend-bg: rgba(255, 255, 255, 0.95);
    --legend-border: #e2e8f0;
    --default-directory-stroke: #9ca3af;
    --default-directory-fill: var(--bg-primary);
  }

  
  :root {
    --bg-primary: #1a1f36;
    --text-primary: #f7fafc;
    --link-stroke: #4f566b;
    --cycle-stroke: #ed5f74;
    --dependency-stroke: #4db7e8;
    --legend-bg: rgba(26, 31, 54, 0.95);
    --legend-border: #4f566b;
    --default-directory-stroke: #6b7280;
    --default-directory-fill: var(--bg-primary);
  }
  

  svg {
    background-color: var(--bg-primary);
    font-family: -apple-system, BlinkMacSystemFont, 'Segoe UI', Roboto, Helvetica, Arial, sans-serif;
    font-size: 12px;
  }

  .link {
    fill: none;
    stroke: var(--link-stroke);
    stroke-opacity: 0.6;
    stroke-width: 1px;
  }

  .service-link {
    stroke-dasharray: 3,3;
  }

  .dependency-link {
    stroke: var(--dependency-stroke);
    stroke-opacity: 0.8;
  }

  .cycle-link {
    stroke: var(--cycle-stroke) !important;
    stroke-width: 2px !important;
    stroke-opacity: 1;
  }

  .node-shape {
    stroke: none;
  }

  .default-directory {
    fill: var(--default-directory-fill);
    stroke: var(--default-directory-stroke);
    stroke-width: 2px;
  }

  .root-node .node-shape {
    stroke: var(--color);
    stroke-width: 2px;
    fill: var(--bg-primary);
  }

  .node text {
    fill: var(--text-primary);
    paint-order: stroke;
    stroke: var(--bg-primary);
    stroke-width: 2px;
    stroke-linecap: butt;
    stroke-linejoin: miter;
  }

  /* Shape definitions */
  .shape-directory,
  .shape-script,
  .shape-style,
  .shape-image,
  .shape-multimedia,
  .shape-default {
    fill: var(--color);
  }

  /* Legend styles */
  .legend {
    font-size: 14px;
  }

  .legend-title {
    font-size: 16px;
    font-weight: bold;
    fill: var(--text-primary);
  }

  .legend-background {
    fill: var(--legend-bg);
    stroke: var(--legend-border);
    stroke-width: 1px;
    rx: 4;
  }

  .legend-text {
    fill: var(--text-primary);
    font-size: 13px;
  }

  .legend-item {
    cursor: help;
  }
  </style></defs><g transform="translate(176, 216)"><path class="link" d="M320,0C360,0,360,60,400,60"/><path class="link" d="M400,60C440,60,440,120,480,120"/><path class="link" d="M400,60C455,60,455,160,510,160"/><path class="link" d="M400,60C470,60,470,200,540,200"/><path class="link" d="M400,60C485,60,485,240,570,240"/><path class="link" d="M510,160C535,160,535,180,560,180"/><path class="link" d="M510,160C550,160,550,220,590,220"/><path class="link" d="M510,160C565,160,565,260,620,260"/><path class="link" d="M510,160C580,160,580,300,650,300"/><path class="link" d="M510,160C595,160,595,340,680,340"/><path class="link" d="M540,200C625,200,625,380,710,380"/><path class="link" d="M570,240C655,240,655,420,740,420"/><path class="link" d="M570,240C670,240,670,460,770,460"/><g class="node node--directory root-node" transform="translate(320,0)" style="--color: #64748b;"><path d="M-6,-6 C-6,-6 -6,-6 -6,-6 L-3,-6 L0,-2 L3,-6 L6,-6 L6,6 L-6,6 Z" class="node-shape shape-home" style="--color: #64748b;"/><text dy="0.31em" x="-12" text-anchor="end">large-size-project</text></g><g class="node node--directory" transform="translate(400,60)" style="--color: #eab308;"><circle r="8" class="node-shape shape-directory" fill="#eab308"/><text dy="0.31em" x="-12" text-anchor="end">src</text></g><g class="node node--script" transform="translate(480,120)" style="--color: #0284c7;"><path d="M0,-8 L8,0 L0,8 L-8,0 Z" class="node-shape shape-script" fill="#0284c7"/><text dy="0.31em" x="12" text-anchor="start">App.js</text></g><g class="node node--directory" transform="translate(510,160)" style="--color: #ec4899;"><circle r="8" class="node-shape shape-directory" fill="#ec4899"/><text dy="0.31em" x="-12" text-anchor="end">components</text></g><g class="node node--directory" transform="translate(540,200)" style="--color: #16a34a;"><circle r="8" class="node-shape shape-directory" fill="#16a34a"/><text dy="0.31em" x="-12" text-anchor="end">theme</text></g><g class="node node--directory" transform="translate(570,240)" style="--color: #eab308;"><circle r="8" class="node-shape shape-directory" fill="#eab308"/><text dy="0.31em" x="-12" text-anchor="end">utils</text></g><g class="node node--script" transform="translate(560,180)" style="--color: #0d9488;"><path d="M0,-8 L8,0 L0,8 L-8,0 Z" class="node-shape shape-script" fill="#0d9488"/><text dy="0.31em" x="12" text-anchor="start">Button.js</text></g><g class="node node--script" transform="translate(590,220)" style="--color: #65a30d;"><path d="M0,-8 L8,0 L0,8 L-8,0 Z" class="node-shape shape-script" fill="#65a30d"/><text dy="0.31em" x="12" text-anchor="start">Card.js</text></g><g class="node node--script" transform="translate(620,260)" style="--color: #9333ea;"><path d="M0,-8 L8,0 L0,8 L-8,0 Z" class="node-shape shape-script" fill="#9333ea"/><text dy="0.31em" x="12" text-anchor="start">Input.js</text></g><g class="node node--script" transform="translate(650,300)" style="--color: #ea580c;"><path d="M0,-8 L8,0 L0,8 L-8,0 Z" class="node-shape shape-script" fill="#ea580c"/><text dy="0.31em" x="12" text-anchor="start">List.js</text></g><g class="node node--script" transform="translate(680,340)" style="--color: #ec4899;"><path d="M0,-8 L8,0 L0,8 L-8,0 Z" class="node-shape shape-script" fill="#ec4899"/><text dy="0.31em" x="12" text-anchor="start">Modal.js</text></g><g class="node node--script" transform="translate(710,380)" style="--color: #16a34a;"><path d="M0,-8 L8,0 L0,8 L-8,0 Z" class="node-shape shape-script" fill="#16a34a"/><text dy="0.31em" x="12" text-anchor="start">index.js</text></g><g class="node node--script" transform="translate(740,420)" style="--color: #4338ca;"><path d="M0,-8 L8,0 L0,8 L-8,0 Z" class="node-shape shape-script" fill="#4338ca"/><text dy="0.31em" x="12" text-anchor="start">format.js</text></g><g class="node node--script" transform="translate(770,460)" style="--color: #eab308;"><path d="M0,-8 L8,0 L0,8 L-8,0 Z" class="node-shape shape-script" fill="#eab308"/><text dy="0.31em" x="12" text-anchor="start">validation.js</text></g></g><g class="legend" transform="translate(24, 24)"><rect class="legend-background" x="-10" y="-10" width="280" height="489"/><text class="legend-title" x="0" y="16">Series Colors</text><g class="legend-item" transform="translate(0, 46)"><rect width="12" height="12" fill="#0284c7"/><text class="legend-text" x="20" y="6" dy="0.31em">App.js</text></g><g class="legend-item" transform="translate(0, 71)"><rect width="12" height="12" fill="#0d9488"/><text class="legend-text" x="20" y="6" dy="0.31em">Button.js</text></g><g class="legend-item" transform="translate(0, 96)"><rect width="12" height="12" fill="#65a30d"/><text class="legend-text" x="20" y="6" dy="0.31em">Card.js</text></g><g class="legend-item" transform="translate(0, 121)"><rect width="12" height="12" fill="#9333ea"/><text class="legend-text" x="20" y="6" dy="0.31em">Input.js</text></g><g class="legend-item" transform="translate(0, 146)"><rect width="12" height="12" fill="#ea580c"/><text class="legend-text" x="20" y="6" dy="0.31em">List.js</text></g><g class="legend-item" transform="translate(0, 171)"><rect width="12" height="12" fill="#ec4899"/><text class="legend-text" x="20" y="6" dy="0.31em">Modal.js</text></g><g class="legend-item" transform="translate(0, 196)"><rect width="12" height="12" fill="#16a34a"/><text class="legend-text" x="20" y="6" dy="0.31em">index.js</text></g><g class="legend-item" transform="translate(0, 221)"><rect width="12" height="12" fill="#4338ca"/><text class="legend-text" x="20" y="6" dy="0.31em">format.js</text></g><g class="legend-item" transform="translate(0, 246)"><rect width="12" height="12" fill="#eab308"/><text class="legend-text" x="20" y="6" dy="0.31em">validation.js</text></g><text class="legend-title" x="0" y="297">Markers Types</text><g class="legend-item" transform="translate(0, 327)"><g transform="translate(8, 8)"><circle r="4.8" fill="#64748b"/></g><text class="legend-text" x="24" y="8" dy="0.31em">Directory</text></g><g class="legend-item" transform="translate(0, 352)"><g transform="translate(8, 8)"><path d="M0,-8 L8,0 L0,8 L-8,0 Z" transform="scale(0.6)" fill="#64748b"/></g><text class="legend-text" x="24" y="8" dy="0.31em">Script Files</text></g><g class="legend-item" transform="translate(0, 377)"><g transform="translate(8, 8)"><rect x="-3.5999999999999996" y="-3.5999999999999996" width="7.199999999999999" height="7.199999999999999" fill="#64748b"/></g><text class="legend-text" x="24" y="8" dy="0.31em">Stylesheet</text></g><g class="legend-item" transform="translate(0, 402)"><g transform="translate(8, 8)"><path d="M0,-8 L2.4,-2.4 L8,0 L2.4,2.4 L0,8 L-2.4,2.4 L-8,0 L-2.4,-2.4 Z" transform="scale(0.6)" fill="#64748b"/></g><text class="legend-text" x="24" y="8" dy="0.31em">Image Files</text></g><g class="legend-item" transform="translate(0, 427)"><g transform="translate(8, 8)"><path d="M0,-8 L1.2,-1.2 L8,-1.2 L2.4,2.4 L4,8 L0,4.8 L-4,8 L-2.4,2.4 L-8,-1.2 L-1.2,-1.2 Z" transform="scale(0.6)" fill="#64748b"/></g><text class="legend-text" x="24" y="8" dy="0.31em">Media Files</text></g><g class="legend-item" transform="translate(0, 452)"><g transform="translate(8, 8)"><path d="M0,-8 L6,6 L-6,6 Z" transform="scale(0.6)" fill="#64748b"/></g><text class="legend-text" x="24" y="8" dy="0.31em">Other Files</text></g></g></svg>