<svg width="2172" height="672" viewBox="0 0 2172 672" xmlns="http://www.w3.org/2000/svg"><defs><style>
  :root {
    --bg-primary: #f7fafc;
    --text-primary: #2a2f45;
    --link-stroke: #c1c9d2;
    --cycle-stroke: #cd3d64;
    --dependency-stroke: #067ab8;
    --legend-bg: rgba(255, 255, 255, 0.95);
    --legend-border: #e2e8f0;
    --default-directory-stroke: #9ca3af;
    --default-directory-fill: var(--bg-primary);
  }

  

  svg {
    background-color: var(--bg-primary);
    font-family: -apple-system, BlinkMacSystemFont, 'Segoe UI', Roboto, Helvetica, Arial, sans-serif;
    font-size: 12px;
  }

  .link {
    fill: none;
    stroke: var(--link-stroke);
    stroke-opacity: 0.6;
    stroke-width: 1px;
  }

  .service-link {
    stroke-dasharray: 3,3;
  }

  .dependency-link {
    stroke: var(--dependency-stroke);
    stroke-opacity: 0.8;
  }

  .cycle-link {
    stroke: var(--cycle-stroke) !important;
    stroke-width: 2px !important;
    stroke-opacity: 1;
  }

  .node-shape {
    stroke: none;
  }

  .default-directory {
    fill: var(--default-directory-fill);
    stroke: var(--default-directory-stroke);
    stroke-width: 2px;
  }

  .root-node .node-shape {
    stroke: var(--color);
    stroke-width: 2px;
    fill: var(--bg-primary);
  }

  .node text {
    fill: var(--text-primary);
    paint-order: stroke;
    stroke: var(--bg-primary);
    stroke-width: 2px;
    stroke-linecap: butt;
    stroke-linejoin: miter;
  }

  /* Shape definitions */
  .shape-directory,
  .shape-script,
  .shape-style,
  .shape-image,
  .shape-multimedia,
  .shape-default {
    fill: var(--color);
  }

  /* Legend styles */
  .legend {
    font-size: 14px;
  }

  .legend-title {
    font-size: 16px;
    font-weight: bold;
    fill: var(--text-primary);
  }

  .legend-background {
    fill: var(--legend-bg);
    stroke: var(--legend-border);
    stroke-width: 1px;
    rx: 4;
  }

  .legend-text {
    fill: var(--text-primary);
    font-size: 13px;
  }

  .legend-item {
    cursor: help;
  }
  </style></defs><g transform="translate(176, 336)"><path class="link" d="M320,0C536.667,0,536.667,0,753.333,0"/><path class="link" d="M753.333,0C994,0,994,-120,1234.667,-120"/><path class="link" d="M753.333,0C1025.177,0,1025.177,-60,1297.02,-60"/><path class="link" d="M753.333,0C1025.177,0,1025.177,60,1297.02,60"/><path class="link" d="M753.333,0C994,0,994,120,1234.667,120"/><path class="link" d="M1297.02,-60C1482.51,-60,1482.51,-120,1668,-120"/><path class="link" d="M1297.02,-60C1507.966,-60,1507.966,-84.853,1718.912,-84.853"/><path class="link" d="M1297.02,60C1518.51,60,1518.51,0,1740,0"/><path class="link" d="M1297.02,60C1507.966,60,1507.966,84.853,1718.912,84.853"/><path class="link" d="M1234.667,120C1451.333,120,1451.333,120,1668,120"/><path class="link dependency-link" stroke="#0d9488" stroke-width="2" stroke-opacity="0.8" d="M1234.6666666666665,-120C1343,-120,1559.6666666666665,-120,1668,-120"/><path class="link dependency-link" stroke="#65a30d" stroke-width="2" stroke-opacity="0.8" d="M1234.6666666666665,-120C1354.6666666666665,-109.4558441227157,1598.9116882454314,-77.82337649086283,1718.9116882454314,-84.85281374238569"/><path class="link dependency-link service-link" stroke="#9333ea" stroke-width="2" stroke-opacity="0.8" d="M1234.6666666666665,-120C1354.6666666666665,-84,1620,24,1740,0"/><path class="link dependency-link service-link" stroke="#ea580c" stroke-width="2" stroke-opacity="0.8" d="M1234.6666666666665,-120C1354.6666666666665,-58.54415587728429,1598.9116882454314,125.82337649086284,1718.9116882454314,84.85281374238569"/><path class="link dependency-link service-link" stroke="#ec4899" stroke-width="2" stroke-opacity="0.8" d="M1234.6666666666665,-120C1354.6666666666665,-48,1548,168,1668,120"/><path class="link dependency-link service-link" stroke="#ec4899" stroke-width="2" stroke-opacity="0.8" d="M1718.9116882454314,-84.85281374238569C1771.6828186685689,-23.39696961966998,1615.2288695768625,160.97056274847714,1668,120"/><path class="link dependency-link service-link" stroke="#ec4899" stroke-width="2" stroke-opacity="0.8" d="M1740,0C1774.9857113690719,36,1633.0142886309281,144,1668,120"/><path class="link dependency-link service-link" stroke="#ec4899" stroke-width="2" stroke-opacity="0.8" d="M1718.9116882454314,84.85281374238569C1734.3780321529039,95.39696961966999,1652.5336560925275,127.02943725152286,1668,120"/><path class="link dependency-link service-link" stroke="#9333ea" stroke-width="2" stroke-opacity="0.8" d="M1718.9116882454314,84.85281374238569C1740.7702061684545,59.39696961966999,1718.141482076977,-16.97056274847714,1740,0"/><g class="node node--directory root-node" transform="translate(320,0)" style="--color: #64748b;"><path d="M-6,-6 C-6,-6 -6,-6 -6,-6 L-3,-6 L0,-2 L3,-6 L6,-6 L6,6 L-6,6 Z" class="node-shape shape-home" style="--color: #64748b;"/><text dy="0.31em" x="-12" text-anchor="end">medium-size-project</text></g><g class="node node--directory" transform="translate(753.3333333333333,0)" style="--color: #ec4899;"><circle r="8" class="node-shape shape-directory" fill="#ec4899"/><text dy="0.31em" x="-12" text-anchor="end">src</text></g><g class="node node--script" transform="translate(1234.6666666666665,-120)" style="--color: #0284c7;"><path d="M0,-8 L8,0 L0,8 L-8,0 Z" class="node-shape shape-script" fill="#0284c7"/><text dy="0.31em" x="12" text-anchor="start">App.js</text></g><g class="node node--directory" transform="translate(1297.020495739146,-60)" style="--color: #65a30d;"><circle r="8" class="node-shape shape-directory" fill="#65a30d"/><text dy="0.31em" x="-12" text-anchor="end">components</text></g><g class="node node--directory" transform="translate(1297.020495739146,59.99999999999998)" style="--color: #ea580c;"><circle r="8" class="node-shape shape-directory" fill="#ea580c"/><text dy="0.31em" x="-12" text-anchor="end">services</text></g><g class="node node--directory" transform="translate(1234.6666666666665,120)" style="--color: #ec4899;"><circle r="8" class="node-shape shape-directory" fill="#ec4899"/><text dy="0.31em" x="-12" text-anchor="end">utils</text></g><g class="node node--script" transform="translate(1668,-120)" style="--color: #0d9488;"><path d="M0,-8 L8,0 L0,8 L-8,0 Z" class="node-shape shape-script" fill="#0d9488"/><text dy="0.31em" x="12" text-anchor="start">Footer.js</text></g><g class="node node--script" transform="translate(1718.9116882454314,-84.85281374238569)" style="--color: #65a30d;"><path d="M0,-8 L8,0 L0,8 L-8,0 Z" class="node-shape shape-script" fill="#65a30d"/><text dy="0.31em" x="12" text-anchor="start">Header.js</text></g><g class="node node--script" transform="translate(1740,0)" style="--color: #9333ea;"><path d="M0,-8 L8,0 L0,8 L-8,0 Z" class="node-shape shape-script" fill="#9333ea"/><text dy="0.31em" x="12" text-anchor="start">ApiService.js</text></g><g class="node node--script" transform="translate(1718.9116882454314,84.85281374238569)" style="--color: #ea580c;"><path d="M0,-8 L8,0 L0,8 L-8,0 Z" class="node-shape shape-script" fill="#ea580c"/><text dy="0.31em" x="12" text-anchor="start">UserService.js</text></g><g class="node node--script" transform="translate(1668,120)" style="--color: #ec4899;"><path d="M0,-8 L8,0 L0,8 L-8,0 Z" class="node-shape shape-script" fill="#ec4899"/><text dy="0.31em" x="12" text-anchor="start">logger.js</text></g></g><g class="legend" transform="translate(24, 24)"><rect class="legend-background" x="-10" y="-10" width="280" height="414"/><text class="legend-title" x="0" y="16">Series Colors</text><g class="legend-item" transform="translate(0, 46)"><rect width="12" height="12" fill="#0284c7"/><text class="legend-text" x="20" y="6" dy="0.31em">App.js</text></g><g class="legend-item" transform="translate(0, 71)"><rect width="12" height="12" fill="#0d9488"/><text class="legend-text" x="20" y="6" dy="0.31em">Footer.js</text></g><g class="legend-item" transform="translate(0, 96)"><rect width="12" height="12" fill="#65a30d"/><text class="legend-text" x="20" y="6" dy="0.31em">Header.js</text></g><g class="legend-item" transform="translate(0, 121)"><rect width="12" height="12" fill="#9333ea"/><text class="legend-text" x="20" y="6" dy="0.31em">ApiService.js</text></g><g class="legend-item" transform="translate(0, 146)"><rect width="12" height="12" fill="#ea580c"/><text class="legend-text" x="20" y="6" dy="0.31em">UserService.js</text></g><g class="legend-item" transform="translate(0, 171)"><rect width="12" height="12" fill="#ec4899"/><text class="legend-text" x="20" y="6" dy="0.31em">logger.js</text></g><text class="legend-title" x="0" y="222">Markers Types</text><g class="legend-item" transform="translate(0, 252)"><g transform="translate(8, 8)"><circle r="4.8" fill="#64748b"/></g><text class="legend-text" x="24" y="8" dy="0.31em">Directory</text></g><g class="legend-item" transform="translate(0, 277)"><g transform="translate(8, 8)"><path d="M0,-8 L8,0 L0,8 L-8,0 Z" transform="scale(0.6)" fill="#64748b"/></g><text class="legend-text" x="24" y="8" dy="0.31em">Script Files</text></g><g class="legend-item" transform="translate(0, 302)"><g transform="translate(8, 8)"><rect x="-3.5999999999999996" y="-3.5999999999999996" width="7.199999999999999" height="7.199999999999999" fill="#64748b"/></g><text class="legend-text" x="24" y="8" dy="0.31em">Stylesheet</text></g><g class="legend-item" transform="translate(0, 327)"><g transform="translate(8, 8)"><path d="M0,-8 L2.4,-2.4 L8,0 L2.4,2.4 L0,8 L-2.4,2.4 L-8,0 L-2.4,-2.4 Z" transform="scale(0.6)" fill="#64748b"/></g><text class="legend-text" x="24" y="8" dy="0.31em">Image Files</text></g><g class="legend-item" transform="translate(0, 352)"><g transform="translate(8, 8)"><path d="M0,-8 L1.2,-1.2 L8,-1.2 L2.4,2.4 L4,8 L0,4.8 L-4,8 L-2.4,2.4 L-8,-1.2 L-1.2,-1.2 Z" transform="scale(0.6)" fill="#64748b"/></g><text class="legend-text" x="24" y="8" dy="0.31em">Media Files</text></g><g class="legend-item" transform="translate(0, 377)"><g transform="translate(8, 8)"><path d="M0,-8 L6,6 L-6,6 Z" transform="scale(0.6)" fill="#64748b"/></g><text class="legend-text" x="24" y="8" dy="0.31em">Other Files</text></g></g></svg>