<svg width="1878.6666666666667" height="732" viewBox="0 0 1878.6666666666667 732" xmlns="http://www.w3.org/2000/svg"><defs><style>
  :root {
    --bg-primary: #f7fafc;
    --text-primary: #2a2f45;
    --link-stroke: #c1c9d2;
    --cycle-stroke: #cd3d64;
    --dependency-stroke: #067ab8;
    --legend-bg: rgba(255, 255, 255, 0.95);
    --legend-border: #e2e8f0;
    --default-directory-stroke: #9ca3af;
    --default-directory-fill: var(--bg-primary);
  }

  

  svg {
    background-color: var(--bg-primary);
    font-family: -apple-system, BlinkMacSystemFont, 'Segoe UI', Roboto, Helvetica, Arial, sans-serif;
    font-size: 12px;
  }

  .link {
    fill: none;
    stroke: var(--link-stroke);
    stroke-opacity: 0.6;
    stroke-width: 1px;
  }

  .service-link {
    stroke-dasharray: 3,3;
  }

  .dependency-link {
    stroke: var(--dependency-stroke);
    stroke-opacity: 0.8;
  }

  .cycle-link {
    stroke: var(--cycle-stroke) !important;
    stroke-width: 2px !important;
    stroke-opacity: 1;
  }

  .node-shape {
    stroke: none;
  }

  .default-directory {
    fill: var(--default-directory-fill);
    stroke: var(--default-directory-stroke);
    stroke-width: 2px;
  }

  .root-node .node-shape {
    stroke: var(--color);
    stroke-width: 2px;
    fill: var(--bg-primary);
  }

  .node text {
    fill: var(--text-primary);
    paint-order: stroke;
    stroke: var(--bg-primary);
    stroke-width: 2px;
    stroke-linecap: butt;
    stroke-linejoin: miter;
  }

  /* Shape definitions */
  .shape-directory,
  .shape-script,
  .shape-style,
  .shape-image,
  .shape-multimedia,
  .shape-default {
    fill: var(--color);
  }

  /* Legend styles */
  .legend {
    font-size: 14px;
  }

  .legend-title {
    font-size: 16px;
    font-weight: bold;
    fill: var(--text-primary);
  }

  .legend-background {
    fill: var(--legend-bg);
    stroke: var(--legend-border);
    stroke-width: 1px;
    rx: 4;
  }

  .legend-text {
    fill: var(--text-primary);
    font-size: 13px;
  }

  .legend-item {
    cursor: help;
  }
  </style></defs><g transform="translate(129.33333333333331, 216)"><path class="link" d="M970,0C970,0,970,100,970,100"/><path class="link" d="M970,100C688.333,100,688.333,200,406.667,200"/><path class="link" d="M970,100C775,100,775,200,580,200"/><path class="link" d="M970,100C1035,100,1035,200,1100,200"/><path class="link" d="M970,100C1251.667,100,1251.667,200,1533.333,200"/><path class="link" d="M580,200C536.667,200,536.667,300,493.333,300"/><path class="link" d="M580,200C623.333,200,623.333,300,666.667,300"/><path class="link" d="M1100,200C1056.667,200,1056.667,300,1013.333,300"/><path class="link" d="M1100,200C1143.333,200,1143.333,300,1186.667,300"/><path class="link" d="M1533.333,200C1533.333,200,1533.333,300,1533.333,300"/><path class="link dependency-link" stroke="#0d9488" stroke-width="2" stroke-opacity="0.8" d="M406.6666666666667,200C439.74905540213206,230,460.250944597868,320,493.33333333333337,300"/><path class="link dependency-link" stroke="#65a30d" stroke-width="2" stroke-opacity="0.8" d="M406.6666666666667,200C476.30860805258726,230,597.0247252807461,320,666.6666666666667,300"/><path class="link dependency-link service-link" stroke="#9333ea" stroke-width="2" stroke-opacity="0.8" d="M406.6666666666667,200C526.6666666666667,230,893.3333333333334,320,1013.3333333333334,300"/><path class="link dependency-link service-link" stroke="#ea580c" stroke-width="2" stroke-opacity="0.8" d="M406.6666666666667,200C526.6666666666667,230,1066.6666666666667,320,1186.6666666666667,300"/><path class="link dependency-link service-link" stroke="#ec4899" stroke-width="2" stroke-opacity="0.8" d="M406.6666666666667,200C526.6666666666667,230,1413.3333333333335,320,1533.3333333333335,300"/><path class="link dependency-link service-link" stroke="#ec4899" stroke-width="2" stroke-opacity="0.8" d="M666.6666666666667,300C786.6666666666667,300,1413.3333333333335,300,1533.3333333333335,300"/><path class="link dependency-link service-link" stroke="#ec4899" stroke-width="2" stroke-opacity="0.8" d="M1013.3333333333334,300C1133.3333333333335,300,1413.3333333333335,300,1533.3333333333335,300"/><path class="link dependency-link service-link" stroke="#ec4899" stroke-width="2" stroke-opacity="0.8" d="M1186.6666666666667,300C1273.3333333333335,300,1446.6666666666667,300,1533.3333333333335,300"/><path class="link dependency-link service-link" stroke="#9333ea" stroke-width="2" stroke-opacity="0.8" d="M1186.6666666666667,300C1230,300,970,300,1013.3333333333334,300"/><g class="node node--directory root-node" transform="translate(970,0)" style="--color: #64748b;"><path d="M-6,-6 C-6,-6 -6,-6 -6,-6 L-3,-6 L0,-2 L3,-6 L6,-6 L6,6 L-6,6 Z" class="node-shape shape-home" style="--color: #64748b;"/><text dy="0.31em" x="-12" text-anchor="end">medium-size-project</text></g><g class="node node--directory" transform="translate(970,100)" style="--color: #ec4899;"><circle r="8" class="node-shape shape-directory" fill="#ec4899"/><text dy="0.31em" x="-12" text-anchor="end">src</text></g><g class="node node--script" transform="translate(406.6666666666667,200)" style="--color: #0284c7;"><path d="M0,-8 L8,0 L0,8 L-8,0 Z" class="node-shape shape-script" fill="#0284c7"/><text dy="0.31em" x="12" text-anchor="start">App.js</text></g><g class="node node--directory" transform="translate(580,200)" style="--color: #65a30d;"><circle r="8" class="node-shape shape-directory" fill="#65a30d"/><text dy="0.31em" x="-12" text-anchor="end">components</text></g><g class="node node--directory" transform="translate(1100,200)" style="--color: #ea580c;"><circle r="8" class="node-shape shape-directory" fill="#ea580c"/><text dy="0.31em" x="-12" text-anchor="end">services</text></g><g class="node node--directory" transform="translate(1533.3333333333335,200)" style="--color: #ec4899;"><circle r="8" class="node-shape shape-directory" fill="#ec4899"/><text dy="0.31em" x="-12" text-anchor="end">utils</text></g><g class="node node--script" transform="translate(493.33333333333337,300)" style="--color: #0d9488;"><path d="M0,-8 L8,0 L0,8 L-8,0 Z" class="node-shape shape-script" fill="#0d9488"/><text dy="0.31em" x="12" text-anchor="start">Footer.js</text></g><g class="node node--script" transform="translate(666.6666666666667,300)" style="--color: #65a30d;"><path d="M0,-8 L8,0 L0,8 L-8,0 Z" class="node-shape shape-script" fill="#65a30d"/><text dy="0.31em" x="12" text-anchor="start">Header.js</text></g><g class="node node--script" transform="translate(1013.3333333333334,300)" style="--color: #9333ea;"><path d="M0,-8 L8,0 L0,8 L-8,0 Z" class="node-shape shape-script" fill="#9333ea"/><text dy="0.31em" x="12" text-anchor="start">ApiService.js</text></g><g class="node node--script" transform="translate(1186.6666666666667,300)" style="--color: #ea580c;"><path d="M0,-8 L8,0 L0,8 L-8,0 Z" class="node-shape shape-script" fill="#ea580c"/><text dy="0.31em" x="12" text-anchor="start">UserService.js</text></g><g class="node node--script" transform="translate(1533.3333333333335,300)" style="--color: #ec4899;"><path d="M0,-8 L8,0 L0,8 L-8,0 Z" class="node-shape shape-script" fill="#ec4899"/><text dy="0.31em" x="12" text-anchor="start">logger.js</text></g></g><g class="legend" transform="translate(24, 24)"><rect class="legend-background" x="-10" y="-10" width="280" height="414"/><text class="legend-title" x="0" y="16">Series Colors</text><g class="legend-item" transform="translate(0, 46)"><rect width="12" height="12" fill="#0284c7"/><text class="legend-text" x="20" y="6" dy="0.31em">App.js</text></g><g class="legend-item" transform="translate(0, 71)"><rect width="12" height="12" fill="#0d9488"/><text class="legend-text" x="20" y="6" dy="0.31em">Footer.js</text></g><g class="legend-item" transform="translate(0, 96)"><rect width="12" height="12" fill="#65a30d"/><text class="legend-text" x="20" y="6" dy="0.31em">Header.js</text></g><g class="legend-item" transform="translate(0, 121)"><rect width="12" height="12" fill="#9333ea"/><text class="legend-text" x="20" y="6" dy="0.31em">ApiService.js</text></g><g class="legend-item" transform="translate(0, 146)"><rect width="12" height="12" fill="#ea580c"/><text class="legend-text" x="20" y="6" dy="0.31em">UserService.js</text></g><g class="legend-item" transform="translate(0, 171)"><rect width="12" height="12" fill="#ec4899"/><text class="legend-text" x="20" y="6" dy="0.31em">logger.js</text></g><text class="legend-title" x="0" y="222">Markers Types</text><g class="legend-item" transform="translate(0, 252)"><g transform="translate(8, 8)"><circle r="4.8" fill="#64748b"/></g><text class="legend-text" x="24" y="8" dy="0.31em">Directory</text></g><g class="legend-item" transform="translate(0, 277)"><g transform="translate(8, 8)"><path d="M0,-8 L8,0 L0,8 L-8,0 Z" transform="scale(0.6)" fill="#64748b"/></g><text class="legend-text" x="24" y="8" dy="0.31em">Script Files</text></g><g class="legend-item" transform="translate(0, 302)"><g transform="translate(8, 8)"><rect x="-3.5999999999999996" y="-3.5999999999999996" width="7.199999999999999" height="7.199999999999999" fill="#64748b"/></g><text class="legend-text" x="24" y="8" dy="0.31em">Stylesheet</text></g><g class="legend-item" transform="translate(0, 327)"><g transform="translate(8, 8)"><path d="M0,-8 L2.4,-2.4 L8,0 L2.4,2.4 L0,8 L-2.4,2.4 L-8,0 L-2.4,-2.4 Z" transform="scale(0.6)" fill="#64748b"/></g><text class="legend-text" x="24" y="8" dy="0.31em">Image Files</text></g><g class="legend-item" transform="translate(0, 352)"><g transform="translate(8, 8)"><path d="M0,-8 L1.2,-1.2 L8,-1.2 L2.4,2.4 L4,8 L0,4.8 L-4,8 L-2.4,2.4 L-8,-1.2 L-1.2,-1.2 Z" transform="scale(0.6)" fill="#64748b"/></g><text class="legend-text" x="24" y="8" dy="0.31em">Media Files</text></g><g class="legend-item" transform="translate(0, 377)"><g transform="translate(8, 8)"><path d="M0,-8 L6,6 L-6,6 Z" transform="scale(0.6)" fill="#64748b"/></g><text class="legend-text" x="24" y="8" dy="0.31em">Other Files</text></g></g></svg>